<svg height="512" viewBox="0 0 64 64" width="512" xmlns="http://www.w3.org/2000/svg"><g id="Fill_Outline" data-name="Fill Outline"><g id="Color"><path d="m3 18h58v39h-58z" fill="#ade8f4"/><path d="m61 52v5h-58v-39h11v10a24.006 24.006 0 0 0 24 24z" fill="#48cae4"/><path d="m32 18h29v27h-29z" fill="#0096c7"/><path d="m3 35h29v22h-29z" fill="#fcea42"/><path d="m32 51.24v5.76h-29v-22h12.04a24.033 24.033 0 0 0 16.96 16.24z" fill="#fdc741"/><path d="m9 11h16v16h-16z" fill="#f9dbaf"/><path d="m15 11h4v4h-4z" fill="#fcf2ad"/><path d="m25 23v4h-16v-16h3a12 12 0 0 0 12 12z" fill="#edb88e"/><path d="m56 17a10 10 0 1 0 -16 7.986v2.014h12v-2.014a9.972 9.972 0 0 0 4-7.986z" fill="#fcea42"/><path d="m52 27h-12a2 2 0 0 0 -2 2 2 2 0 0 0 2 2h12a2 2 0 0 0 2-2 2 2 0 0 0 -2-2z" fill="#e9f1f2"/><path d="m52 31h-12a2 2 0 0 0 -2 2 2 2 0 0 0 2 2h12a2 2 0 0 0 2-2 2 2 0 0 0 -2-2z" fill="#e9f1f2"/><path d="m46 41a6 6 0 0 1 -6-6h12a6 6 0 0 1 -6 6z" fill="#d0d8da"/><path d="m52 25v2h-12v-2.01a9.986 9.986 0 0 1 3.19-17.58 11 11 0 0 0 8.81 17.59z" fill="#fdc741"/><path d="m54 29a2.006 2.006 0 0 1 -2 2h-12a2.015 2.015 0 0 1 -2-2 2.006 2.006 0 0 1 2-2 2.015 2.015 0 0 0 2 2z" fill="#d0d8da"/><path d="m54 33a2.006 2.006 0 0 1 -2 2h-12a2.015 2.015 0 0 1 -2-2 2.006 2.006 0 0 1 2-2 2.015 2.015 0 0 0 2 2z" fill="#d0d8da"/><path d="m52 35a5.8 5.8 0 0 1 -.35 2h-2.65a5.944 5.944 0 0 0 -4.24 1.76 5.608 5.608 0 0 0 -1.2 1.72 6.009 6.009 0 0 1 -3.56-5.48z" fill="#b8bebf"/><path d="m36 37-6-6v4h-5a4 4 0 0 1 -4-4h-4a8 8 0 0 0 8 8h5v4z" fill="#ef5350"/><path d="m30 43v-4h-5a8 8 0 0 1 -8-8h2a6 6 0 0 0 6 6h11z" fill="#e53935"/></g><g id="Outline_copy" fill="#323232" data-name="Outline copy"><path d="m61 17h-4a10.946 10.946 0 0 0 -1.826-6.064 1 1 0 1 0 -1.667 1.105 8.977 8.977 0 0 1 -2.107 12.147 1 1 0 0 0 -.4.8v1.012h-1.941a15.976 15.976 0 0 1 1.625-6.13l1.216-2.423a1 1 0 0 0 -.188-1.154l-1.084-1.085a3.714 3.714 0 0 0 -5.246 0 1.709 1.709 0 0 1 -1.622.45l-2.512-.628a1 1 0 0 0 -1.162 1.364l1.63 3.8a15.844 15.844 0 0 1 1.26 5.806h-1.976v-1.014a1 1 0 0 0 -.4-.8 8.993 8.993 0 0 1 10.359-14.693 1 1 0 1 0 1.1-1.667 11 11 0 0 0 -17.059 9.174h-9v-6a1 1 0 0 0 -1-1h-16a1 1 0 0 0 -1 1v6h-5a1 1 0 0 0 -1 1v23a1 1 0 0 0 2 0v-5h13.522a9 9 0 0 0 7.478 4h4v3a1 1 0 0 0 1.707.707l6-6a1 1 0 0 0 0-1.414l-6-6a1 1 0 0 0 -1.707.707v3h-4a3 3 0 0 1 -3-3 1 1 0 0 0 -1-1h-4a1 1 0 0 0 -1 1 8.936 8.936 0 0 0 .525 3h-12.525v-15h4v8a1 1 0 0 0 1 1h3a1 1 0 0 0 0-2h-2v-14h4v3a1 1 0 0 0 1 1h4a1 1 0 0 0 1-1v-3h4v14h-8a1 1 0 0 0 0 2h9a1 1 0 0 0 1-1v-8h5v9a1 1 0 0 0 2 0v-9h2.2a10.886 10.886 0 0 0 3.8 6.471v.713a2.972 2.972 0 0 0 -1.22 4.816 2.971 2.971 0 0 0 1.274 4.833 7 7 0 0 0 13.892 0 2.971 2.971 0 0 0 1.274-4.833 2.972 2.972 0 0 0 -1.22-4.816v-.713a10.886 10.886 0 0 0 3.8-6.471h3.2v16a1 1 0 0 0 2 0v-17a1 1 0 0 0 -1-1zm-40.9 15a5.008 5.008 0 0 0 4.9 4h5a1 1 0 0 0 1-1v-1.586l3.586 3.586-3.586 3.586v-1.586a1 1 0 0 0 -1-1h-5a7.012 7.012 0 0 1 -6.929-6zm-2.1-18h-2v-2h2zm25.549 5.409-.836-1.95.557.139a3.728 3.728 0 0 0 3.522-.975 1.71 1.71 0 0 1 2.416 0l.575.574-.883 1.778a18.038 18.038 0 0 0 -1.872 7.025h-2.034a17.854 17.854 0 0 0 -1.445-6.591zm-3.549 8.591h12a1 1 0 0 1 0 2h-12a1 1 0 0 1 0-2zm6 12a5.008 5.008 0 0 1 -4.9-4h9.8a5.008 5.008 0 0 1 -4.9 4zm6-6h-12a1 1 0 0 1 0-2h12a1 1 0 0 1 0 2z"/><path d="m61 38a1 1 0 0 0 -1 1v17h-27v-10a1 1 0 0 0 -2 0v10h-27v-11a1 1 0 0 0 -2 0v12a1 1 0 0 0 1 1h58a1 1 0 0 0 1-1v-18a1 1 0 0 0 -1-1z"/><path d="m12 49a1 1 0 0 1 -1-1 1 1 0 0 0 -2 0 3 3 0 0 0 2 2.816v1.184a1 1 0 0 0 2 0v-1.184a2.993 2.993 0 0 0 -1-5.816 1 1 0 1 1 1-1 1 1 0 0 0 2 0 3 3 0 0 0 -2-2.816v-1.184a1 1 0 0 0 -2 0v1.184a2.993 2.993 0 0 0 1 5.816 1 1 0 0 1 0 2z"/><path d="m57 49a1 1 0 0 0 -1-1h-18a1 1 0 0 0 0 2h18a1 1 0 0 0 1-1z"/><path d="m38 54h6a1 1 0 0 0 0-2h-6a1 1 0 0 0 0 2z"/><path d="m49 52a1 1 0 0 0 0 2h5a1 1 0 0 0 0-2z"/><circle cx="32" cy="14" r="1"/><circle cx="60" cy="14" r="1"/><circle cx="46" cy="3" r="1"/><path d="m33.376 9.866a1 1 0 1 0 -.366-1.366 1 1 0 0 0 .366 1.366z"/><path d="m52.5 5.742a1 1 0 1 0 -.366-1.366 1 1 0 0 0 .366 1.366z"/><path d="m39.5 5.742a1 1 0 1 0 -1.366-.366 1 1 0 0 0 1.366.366z"/><path d="m58.624 9.866a1 1 0 1 0 -1.366-.366 1 1 0 0 0 1.366.366z"/><path d="m18 53h8a1 1 0 0 0 0-2h-8a1 1 0 0 0 0 2z"/><path d="m18 49h4a1 1 0 0 0 0-2h-4a1 1 0 0 0 0 2z"/><path d="m18 45h3a1 1 0 0 0 0-2h-3a1 1 0 0 0 0 2z"/></g></g></svg>